<?xml version="1.0" standalone="no"?>
<!DOCTYPE svg PUBLIC "-//W3C//DTD SVG 20010904//EN"
 "http://www.w3.org/TR/2001/REC-SVG-20010904/DTD/svg10.dtd">
<svg version="1.0" xmlns="http://www.w3.org/2000/svg"
 width="512.000000pt" height="512.000000pt" viewBox="0 0 512.000000 512.000000"
 preserveAspectRatio="xMidYMid meet">
<metadata>
Created by potrace 1.14, written by Peter Selinger 2001-2017
</metadata>
<g transform="translate(0.000000,512.000000) scale(0.100000,-0.100000)"
fill="#000000" stroke="none">
<path d="M2378 4955 c-2 -1 -39 -5 -83 -9 -44 -3 -91 -8 -105 -11 -14 -3 -50
-10 -81 -15 -68 -12 -230 -59 -244 -70 -5 -4 -21 -11 -35 -15 -47 -14 -155
-68 -235 -118 -166 -102 -327 -253 -435 -406 -33 -47 -63 -90 -68 -96 -4 -5
-33 -62 -64 -125 -54 -110 -98 -226 -114 -300 -4 -19 -9 -39 -10 -45 -36 -142
-49 -278 -49 -530 0 -272 10 -368 60 -566 44 -174 125 -357 217 -493 39 -58
164 -209 190 -231 7 -6 42 -36 78 -66 170 -144 459 -276 665 -304 17 -3 59 -8
94 -13 101 -14 346 -12 461 4 298 42 579 158 768 317 24 21 45 37 45 37 4 0
-1 -283 -7 -395 -13 -265 -96 -438 -264 -548 -58 -38 -154 -85 -187 -92 -5 -1
-28 -7 -50 -13 -147 -42 -464 -49 -561 -12 -13 5 -24 7 -24 5 0 -10 -145 48
-198 80 -99 58 -203 181 -233 273 -6 20 -15 41 -19 45 -4 4 -214 10 -467 11
l-460 4 9 -39 c20 -92 27 -120 63 -229 82 -252 198 -418 390 -560 130 -96 355
-188 550 -226 11 -2 31 -6 45 -9 14 -2 43 -7 65 -10 23 -3 50 -7 61 -9 140
-27 703 -28 841 -2 11 3 44 7 74 11 81 10 222 42 318 72 47 14 91 27 96 29 22
5 158 66 203 91 278 154 445 356 526 635 33 113 47 198 62 353 5 50 9 3233 5
3457 l-1 26 -421 0 -420 -1 1 -121 c1 -67 1 -149 1 -184 l-1 -64 -36 49 c-35
47 -109 122 -170 173 -56 47 -96 72 -182 115 -164 82 -328 125 -507 131 -60 3
-120 6 -132 8 -13 2 -24 2 -25 1z m437 -784 c44 -12 123 -42 175 -68 162 -81
304 -241 374 -423 31 -82 38 -102 42 -117 1 -6 7 -27 12 -45 22 -71 32 -172
32 -328 0 -125 -5 -184 -22 -245 -5 -22 -12 -48 -14 -59 -13 -69 -77 -195
-140 -277 -156 -203 -381 -305 -682 -307 -359 -3 -637 161 -780 458 -69 143
-94 271 -94 473 0 158 22 305 65 417 90 239 284 426 525 505 143 46 358 53
507 16z"/>
</g>
</svg>
